HIERARCHY
ROOT pelvis
{
  OFFSET 0 100 0
  CHANNELS 6 Xposition Yposition Zposition Zrotation Xrotation Yrotation
  JOINT pelvis_right_femur
  {
    OFFSET -10.78128 -3.44521 -0.5502486
    CHANNELS 3 Zrotation Xrotation Yrotation
    JOINT right_femur_tibia
    {
      OFFSET -0.8047443 -44.0398 -0.1307829
      CHANNELS 3 Zrotation Xrotation Yrotation
      JOINT right_tibia_foot
      {
        OFFSET 3.006224 -47.83518 -5
        CHANNELS 3 Zrotation Xrotation Yrotation
        End Site
        {
          OFFSET 0 -5 15
        }
      }
    }
  }
  JOINT pelvis_left_femur
  {
    OFFSET 10.78128 -3.44521 -0.5502486
    CHANNELS 3 Zrotation Xrotation Yrotation
    JOINT left_femur_tibia
    {
      OFFSET 0.8047443 -44.0398 -0.1307829
      CHANNELS 3 Zrotation Xrotation Yrotation
      JOINT left_tibia_foot
      {
        OFFSET -4.370144 -48.10324 -4.275266
        CHANNELS 3 Zrotation Xrotation Yrotation
        End Site
        {
          OFFSET 0 -5 15
        }
      }
    }
  }
  JOINT pelvis_spine1
  {
    OFFSET 0 6.468898 -3.129235
    CHANNELS 3 Zrotation Xrotation Yrotation
    JOINT spine1
    {
      OFFSET 0 23.15396 4.99043
      CHANNELS 3 Zrotation Xrotation Yrotation
      JOINT spine2
      {
        OFFSET 0 20.79997 -5.064912
        CHANNELS 3 Zrotation Xrotation Yrotation
        JOINT neck
        {
          OFFSET 0 14.38658 9.616178
          CHANNELS 3 Zrotation Xrotation Yrotation
          End Site
          {
            OFFSET 0 20 0
          }
        }
      }
      JOINT right_manubrium
      {
        OFFSET -5.722621 16.35077 3.967754
        CHANNELS 3 Zrotation Xrotation Yrotation
        JOINT right_clavicle
        {
          OFFSET -13.16364 1.694482 -4.693211
          CHANNELS 3 Zrotation Xrotation Yrotation
          JOINT right_humerus
          {
            OFFSET -28.5034 -0.3100689 -2.792744
            CHANNELS 3 Zrotation Xrotation Yrotation
            JOINT right_radius
            {
              OFFSET -25.15693 0.02248979 -1.271978
              CHANNELS 3 Zrotation Xrotation Yrotation
              End Site
              {
                OFFSET -15 0 0
              }
            }
          }
        }
      }
      JOINT left_manubrium
      {
        OFFSET 5.722621 16.35077 3.967754
        CHANNELS 3 Zrotation Xrotation Yrotation
        JOINT left_clavicle
        {
          OFFSET 13.16364 1.694482 -4.693211
          CHANNELS 3 Zrotation Xrotation Yrotation
          JOINT left_humerus
          {
            OFFSET 29.39168 -1.063119 -2.237045
            CHANNELS 3 Zrotation Xrotation Yrotation
            JOINT left_radius
            {
              OFFSET 24.59957 -0.9528479 0.9047498
              CHANNELS 3 Zrotation Xrotation Yrotation
              End Site
              {
                OFFSET 15 -0 -0
              }
            }
          }
        }
      }
    }
  }
}
MOTION
Frames: 7
Frame Time: 0.0416666666667
0 103.5113 0 -0.03268954 -0.3850514 0.03478383 4.644926 -18.19646 11.18075 -0 41.19598 -0 -6.086352 -17.82636 -4.183847 -6.350689 10.80135 -23.96108 -0 5.065671 -0 10.27741 -15.95548 27.82622 -3.233781 -3.623259 4.303103 2.792129 9.225199 -7.588542 1.706092 22.41246 6.737323 2.187893 -26.02122 10.76187 5.915156 -19.94139 11.40586 86.02507 35.18893 -18.48729 -0 0 15.35713 -6.025271 8.468481 4.658294 4.809154 -18.87456 -1.030376 -94.37964 27.30178 22.72281 0 0 -14.17568 9.43986 18.07808 4.167582
0.2562213 103.4822 1.42074 -0.133779 -0.4983547 0.06786005 4.659084 -18.41643 10.91044 -0 40.86515 -0 -6.241702 -17.29311 -4.160112 -6.208536 10.99533 -23.71203 -0 5.104896 -0 9.693288 -16.29127 27.42825 -3.119034 -3.556635 4.208104 2.757792 9.263587 -7.634274 1.680339 22.4102 6.779297 2.239262 -25.97154 10.70269 5.77813 -19.91067 11.39785 86.18861 34.76852 -18.65265 -0 0 15.26043 -6.379753 8.507666 4.737129 4.864179 -19.10207 -1.144744 -94.33533 27.44833 22.62017 0 0 -14.35552 9.068306 18.21176 4.541219
0.5357513 103.2664 3.191317 -0.429198 0.3554706 0.1604979 5.361484 -22.03174 10.13159 -0 36.52387 -0 -6.017181 -15.06063 -3.548131 -6.102897 11.3674 -22.84705 -0 4.836252 -0 8.948649 -17.86975 26.49381 -2.77753 -3.08484 4.325647 2.664376 9.310406 -7.667956 1.763609 21.82316 7.010914 2.664917 -26.14189 10.73203 5.632336 -19.71912 11.30975 86.33208 34.80179 -19.13013 -0 0 15.29138 -6.836994 8.944601 4.643895 5.755713 -19.85236 -1.136326 -93.68165 26.79815 21.80698 0 0 -16.34065 9.705766 17.66537 3.97553
0.8469988 102.9091 5.169087 -0.6219089 1.814049 0.3405556 6.428537 -25.57877 10.35034 -0 32.44612 -0 -5.259141 -13.95353 -3.054666 -6.286528 11.48503 -22.71792 -0 4.428924 -0 8.92519 -19.29971 26.41668 -2.643543 -2.697505 4.675048 2.696005 9.070913 -7.632732 1.909095 21.13747 7.281469 3.061149 -26.65182 11.03639 5.889511 -19.51927 11.1845 86.1064 36.1095 -19.49119 -0 0 15.57192 -6.018173 9.346928 4.093386 6.580403 -20.04107 -0.6951605 -93.75589 26.81329 21.88302 0 0 -18.22695 10.14595 17.019 3.892372
1.192031 102.3921 7.471798 -0.8749635 3.171842 0.6104816 7.490439 -29.08137 10.26345 -0 28.11512 -0 -4.737483 -11.99719 -2.417526 -6.37724 11.76749 -22.1463 -0 4.3227 -0 8.785048 -20.60055 25.95205 -2.511327 -2.282663 4.848212 2.799921 8.969822 -7.684041 1.957186 20.45776 7.591153 3.47531 -27.15253 11.23138 6.0747 -19.26274 11.14695 86.08292 37.25722 -19.92285 -0 0 15.434 -5.656099 9.817986 3.810811 7.361932 -20.42164 -0.3872508 -93.44164 26.3195 21.4854 0 0 -20.18359 10.87779 16.17723 3.239173
1.565188 101.7534 10.11951 -1.198715 4.231052 0.9669014 8.392598 -31.83097 10.06663 -0 24.58623 -0 -4.515405 -9.961301 -1.86857 -6.326419 12.18054 -21.44598 -0 4.552575 -0 8.141166 -21.69482 25.1161 -2.328803 -1.925951 4.838857 2.920284 8.889093 -7.774393 1.935583 19.92599 7.902804 3.818104 -27.59066 11.37298 6.173984 -18.96234 11.13232 86.2067 38.00035 -20.38226 -0 0 15.0341 -5.590453 10.26727 3.70136 7.935144 -20.82548 -0.1757511 -93.16314 25.9653 21.08082 0 0 -21.71655 11.25666 15.55999 2.852278
1.957683 101.0253 13.18247 -1.610689 4.888779 1.396979 8.996561 -33.93777 9.474667 -0 21.63248 -0 -4.717684 -7.815019 -1.380163 -6.076132 12.80682 -20.42562 -0 5.471614 -0 6.733978 -22.5369 23.55683 -2.022949 -1.622252 4.617472 3.023349 8.865698 -7.927635 1.833648 19.53894 8.19194 4.09935 -27.8501 11.37438 6.111254 -18.57565 11.11911 86.50798 38.05886 -20.92501 -0 0 14.37044 -6.064785 10.70153 3.791888 8.339537 -21.38083 -0.1410074 -92.69673 25.52906 20.39307 0 0 -22.85759 11.41947 15.16039 2.494238
